    <svg
      width="31"
      height="24"
      viewBox="0 0 31 24"
      fill="none"
      xmlns="http://www.w3.org/2000/svg"
    >
      <path
        d="M24.0135 21.7661L24.0701 16.7777C24.0701 14.7194 23.3828 12.8215 22.2252 11.3012M24.0135 21.7661L24.9972 22.8614M24.0135 21.7661L7.00123 21.7661M6.40758 6.01807L4.21738 4.3295L5.90028 6.44508M6.40758 6.01807C8.76716 4.12657 11.7623 2.99516 15.0217 2.99516C19.3597 2.99516 23.2296 4.99926 25.756 8.13209M6.40758 6.01807L7.60778 6.94338M5.90028 6.44508C3.04176 8.97044 1.23912 12.6636 1.23912 16.7777L1.23912 21.7661L2.22288 22.8614M5.90028 6.44508L6.81816 7.59896M2.22288 22.8614L7.01366 22.8614L7.00123 21.7661M2.22288 22.8614L2.22288 21.7661L2.22288 17.873C2.22288 13.7906 3.99785 10.1227 6.81816 7.59896M24.9972 22.8614L29.788 22.8614L29.788 17.873C29.788 14.0695 28.2473 10.6259 25.756 8.13209M24.9972 22.8614L25.0097 21.7661L25.0538 17.873C25.0538 15.2848 23.9672 12.9504 22.2252 11.3012M6.81816 7.59896L8.85345 10.1575L9.7729 11.3134M7.00123 21.7661L6.95705 17.873C6.95705 15.2912 8.0384 12.9619 9.7729 11.3134M25.756 8.13209C23.2615 5.63512 19.8138 4.09047 16.0054 4.09047C12.8449 4.09047 9.93284 5.15429 7.60778 6.94338M7.60778 6.94338L10.3279 9.04046L11.5598 9.99024M22.2252 11.3012C20.6037 9.76611 18.4145 8.82464 16.0054 8.82464C14.3897 8.82464 12.8728 9.24816 11.5598 9.99024M9.7729 11.3134L12.728 15.0282V15.0282C13.1633 15.6249 13.3289 16.3783 13.6412 17.0476C14.0563 17.9374 14.9589 18.5539 16.0054 18.5539C17.4455 18.5539 18.613 17.3865 18.613 15.9464C18.613 14.895 17.9907 13.9889 17.0943 13.5764C16.4298 13.2706 15.6826 13.1175 15.0794 12.7037V12.7037L11.5598 9.99024"
        stroke="white"
        stroke-width="1.2"
        stroke-miterlimit="16"
      />
    </svg>
