<svg width="65" height="80" viewBox="0 0 65 80" fill="none" xmlns="http://www.w3.org/2000/svg">
<path d="M0 34.5L20.6304 9.30219V15.1826L5.8804 34.5L20.6303 53.8174L20.6303 59.6978L0 34.5Z" fill="white"/>
<path d="M64.9133 45.5L44.283 20.3022V26.1826L59.0329 45.5L44.283 64.8174V70.6978L64.9133 45.5Z" fill="white"/>
<path fill-rule="evenodd" clip-rule="evenodd" d="M41.4794 27.5642L43.5742 28.1216C37.5602 29.098 26.6241 33.0817 20.7513 41.82L19.4091 40.1101C19.9342 39.3738 20.477 38.6834 21.0318 38.0368L17.9123 34.203L23.3527 33.3607C25.9354 31.2434 30.4931 29.5462 32.4491 28.9623L34.0547 29.7871C36.5072 28.3953 39.3935 28.2066 40.53 28.2862L41.4794 27.5642Z" fill="white"/>
<path fill-rule="evenodd" clip-rule="evenodd" d="M43.4727 28.5886L42.6968 32.158C37.3715 33.9318 28.1419 39.1249 25.3154 47.6347L21.3747 42.6143C26.5138 33.642 37.3739 29.5756 43.4727 28.5886Z" fill="white"/>
<path fill-rule="evenodd" clip-rule="evenodd" d="M42.5728 32.7283L42.2462 34.2308C38.4764 36.2859 31.9345 42.3148 31.7439 51.5699C31.7124 53.0995 31.8544 54.7172 32.211 56.4197L26.0434 48.5621C28.3514 39.7848 37.3831 34.4947 42.5728 32.7283Z" fill="white"/>
</svg>
