<svg
width="40"
height="40"
viewBox="0 0 40 40"
fill="none"
xmlns="http://www.w3.org/2000/svg"
>
<rect
  x="0.677002"
  y="0.810333"
  width="39.323"
  height="38.3793"
  rx="19.1897"
  fill="url(#paint0_linear_9_376)"
/>
<path
  d="M20.3385 10.8103C17.8258 10.8103 15.7888 12.8879 15.7888 15.4508C15.7888 18.0137 17.8258 20.0913 20.3385 20.0913C22.8513 20.0913 24.8882 18.0137 24.8882 15.4508C24.8882 12.8879 22.8513 10.8103 20.3385 10.8103Z"
  fill="white"
/>
<path
  fill-rule="evenodd"
  clip-rule="evenodd"
  d="M14.2092 22.8814C14.8203 21.7901 16.2848 21.5175 17.3869 22.1086C18.2766 22.5858 19.3454 23.0088 20.3385 23.0088C21.3316 23.0088 22.4004 22.5858 23.2901 22.1086C24.3922 21.5175 25.8567 21.7901 26.4678 22.8814L28.333 26.2125C29.0795 27.5457 28.1159 29.1896 26.5879 29.1896H14.0891C12.5611 29.1896 11.5975 27.5457 12.344 26.2125L14.2092 22.8814Z"
  fill="white"
/>
<defs>
  <linearGradient
    id="paint0_linear_9_376"
    x1="20.3385"
    y1="0.810333"
    x2="20.3385"
    y2="39.1896"
    gradientUnits="userSpaceOnUse"
  >
    <stop stop-color="#3B46AB" />
    <stop offset="1" stop-color="#19258E" />
  </linearGradient>
</defs>
</svg>
